<?xml version="1.0" standalone="no"?>
<!DOCTYPE svg PUBLIC "-//W3C//DTD SVG 20010904//EN"
 "http://www.w3.org/TR/2001/REC-SVG-20010904/DTD/svg10.dtd">
<svg version="1.0" xmlns="http://www.w3.org/2000/svg"
 width="200.000000pt" height="200.000000pt" viewBox="0 0 200.000000 200.000000"
 preserveAspectRatio="xMidYMid meet">

<g transform="translate(0.000000,200.000000) scale(0.100000,-0.100000)"
fill="#000000" stroke="none">
<path d="M0 1000 l0 -1000 1000 0 1000 0 0 1000 0 1000 -1000 0 -1000 0 0
-1000z m684 275 l1 -60 53 -3 52 -3 0 -44 0 -44 -52 -3 -53 -3 3 -64 c3 -76
18 -105 67 -122 33 -12 35 -15 35 -61 0 -46 -1 -48 -27 -48 -35 0 -100 30
-130 59 -50 48 -57 75 -61 258 -2 95 -2 180 2 188 4 12 18 15 57 13 l52 -3 1
-60z m-264 -77 c68 -35 103 -86 108 -158 l4 -60 -153 0 -152 0 23 -24 c30 -33
70 -41 115 -22 42 18 145 22 145 6 0 -43 -88 -106 -161 -116 -132 -18 -257
102 -234 225 26 138 179 213 305 149z m732 -13 c54 -38 90 -105 86 -160 l-3
-40 -149 -5 -150 -5 33 -27 c37 -32 63 -35 105 -13 35 19 146 21 146 3 0 -7
-14 -28 -31 -46 -104 -111 -280 -87 -350 49 -49 98 2 223 111 268 14 6 55 10
92 8 56 -2 74 -8 110 -32z m428 13 c26 -14 57 -41 75 -66 29 -42 30 -48 33
-170 3 -116 1 -131 -20 -172 -65 -128 -244 -148 -343 -39 -19 22 -33 44 -30
49 9 15 107 11 135 -5 53 -30 129 -6 143 44 5 19 4 19 -27 0 -42 -25 -90 -24
-152 5 -59 27 -97 72 -113 132 -43 163 143 301 299 222z m280 -258 c29 -29 26
-74 -6 -99 -35 -27 -59 -26 -89 4 -30 30 -31 54 -4 89 25 32 70 35 99 6z
m-1440 -209 c0 -5 9 -11 20 -14 15 -4 20 -14 20 -36 0 -17 -4 -31 -10 -31 -5
0 -10 11 -10 25 0 14 -4 25 -10 25 -5 0 -10 -11 -10 -25 0 -14 -4 -25 -10 -25
-5 0 -10 20 -10 45 0 25 5 45 10 45 6 0 10 -4 10 -9z m260 -36 c0 -25 -4 -45
-10 -45 -5 0 -10 20 -10 45 0 25 5 45 10 45 6 0 10 -20 10 -45z m-490 24 c11
-8 12 -12 3 -16 -16 -6 -17 -43 -2 -43 5 0 8 -4 4 -10 -11 -18 -33 1 -38 33
-7 47 3 57 33 36z m88 -12 c25 -30 -6 -74 -40 -56 -21 11 -24 39 -6 57 16 16
33 15 46 -1z m90 -6 c3 -9 -2 -11 -17 -6 -15 4 -21 2 -21 -8 0 -21 12 -28 27
-16 10 9 13 8 13 -4 0 -20 -29 -30 -46 -16 -15 12 -19 51 -7 63 11 11 46 2 51
-13z m176 3 c9 -24 7 -54 -3 -54 -5 0 -11 10 -13 23 -2 12 -7 22 -13 22 -5 0
-11 -10 -13 -22 -4 -28 -22 -31 -22 -4 0 34 12 51 35 51 13 0 26 -7 29 -16z
m86 -3 c13 -25 13 -27 -6 -45 -12 -12 -20 -13 -35 -6 -18 10 -26 50 -12 63 13
14 43 7 53 -12z m138 -17 c2 -21 -2 -33 -12 -37 -26 -10 -46 4 -46 32 0 34 8
43 35 39 14 -2 21 -12 23 -34z m90 -11 c-3 -44 -5 -48 -28 -48 -20 0 -26 6
-31 30 -7 40 6 65 37 65 24 0 25 -3 22 -47z m52 25 c6 -17 9 -18 9 -6 1 9 6
20 12 24 14 9 3 -64 -13 -83 -16 -19 -30 -16 -23 6 3 10 1 30 -4 44 -8 22 -6
37 6 37 2 0 8 -10 13 -22z"/>
<path d="M258 1100 l-33 -29 93 -1 c50 0 92 4 92 9 0 19 -54 51 -86 51 -23 0
-44 -9 -66 -30z"/>
<path d="M979 1115 c-15 -8 -29 -21 -33 -30 -5 -13 8 -15 84 -15 76 0 89 2 83
15 -7 20 -55 45 -85 45 -13 -1 -35 -7 -49 -15z"/>
<path d="M1419 1092 c-93 -83 34 -219 128 -138 23 20 28 32 28 71 0 39 -5 51
-28 71 -39 33 -88 32 -128 -4z"/>
<path d="M592 684 c4 -21 22 -23 26 -1 2 10 -3 17 -13 17 -10 0 -15 -6 -13
-16z"/>
<path d="M730 680 c0 -11 5 -20 10 -20 6 0 10 9 10 20 0 11 -4 20 -10 20 -5 0
-10 -9 -10 -20z"/>
<path d="M820 679 c0 -11 5 -17 10 -14 6 3 10 13 10 21 0 8 -4 14 -10 14 -5 0
-10 -9 -10 -21z"/>
</g>
</svg>
